<svg xmlns="http://www.w3.org/2000/svg" width="16cm" height="29.21cm" viewBox="0 0 1890 3450">
<rect width="1890" height="3450" fill="white"/>
<style>.title{font-family:Arial,Helvetica,sans-serif;font-size:13.4pt;font-weight:700;fill:#121212}.body{font-family:Arial,Helvetica,sans-serif;font-size:11pt;fill:#121212}.bodyb{font-family:Arial,Helvetica,sans-serif;font-size:11pt;font-weight:700;fill:#121212}</style>
<text class="title" x="945.0" y="83" text-anchor="middle">Gesamtkonzept der ROS-2-basierten</text><text class="title" x="945.0" y="148" text-anchor="middle">Automatisierungsarchitektur</text><rect x="55" y="190" width="1780" height="411" rx="16" fill="white" stroke="#1c1c1c" stroke-width="3"/><text class="bodyb" x="107" y="242.5" text-anchor="start">Physische Ebene</text><rect x="90" y="285" width="840" height="125" rx="12" fill="white" stroke="#1c1c1c" stroke-width="3"/><text class="body" x="510.0" y="357.5" text-anchor="middle">Comau SMART-5 NJ-370-2.7</text><rect x="960" y="285" width="840" height="125" rx="12" fill="white" stroke="#1c1c1c" stroke-width="3"/><text class="body" x="1380.0" y="357.5" text-anchor="middle">Arbeitsraum, Werkzeug</text><rect x="90" y="436" width="840" height="125" rx="12" fill="white" stroke="#1c1c1c" stroke-width="3"/><text class="body" x="510.0" y="508.5" text-anchor="middle">Schleiftrog, Fliehkraftgleitschleifanlage</text><rect x="960" y="436" width="840" height="125" rx="12" fill="white" stroke="#1c1c1c" stroke-width="3"/><text class="body" x="1380.0" y="508.5" text-anchor="middle">Motorspindel, Festo-Pneumatik</text><path d="M945 613 L945 643" stroke="#121212" stroke-width="8" fill="none" stroke-linecap="round"/><path d="M945 671 L921 633 L969 633 Z" fill="#121212"/><rect x="55" y="696" width="1780" height="411" rx="16" fill="white" stroke="#1c1c1c" stroke-width="3"/><text class="bodyb" x="107" y="748.5" text-anchor="start">Steuerungs- und Geräteebene</text><rect x="90" y="791" width="840" height="125" rx="12" fill="white" stroke="#1c1c1c" stroke-width="3"/><text class="body" x="510.0" y="863.5" text-anchor="middle">Comau-C4G-Controller</text><rect x="960" y="791" width="840" height="125" rx="12" fill="white" stroke="#1c1c1c" stroke-width="3"/><text class="body" x="1380.0" y="863.5" text-anchor="middle">Peripheriesteuerungen</text><rect x="90" y="942" width="840" height="125" rx="12" fill="white" stroke="#1c1c1c" stroke-width="3"/><text class="body" x="510.0" y="1014.5" text-anchor="middle">reale Ausführung und Gerätezustände</text><path d="M945 1119 L945 1149" stroke="#121212" stroke-width="8" fill="none" stroke-linecap="round"/><path d="M945 1177 L921 1139 L969 1139 Z" fill="#121212"/><rect x="55" y="1202" width="1780" height="411" rx="16" fill="white" stroke="#1c1c1c" stroke-width="3"/><text class="bodyb" x="107" y="1254.5" text-anchor="start">Schnittstellenebene</text><rect x="90" y="1297" width="840" height="125" rx="12" fill="white" stroke="#1c1c1c" stroke-width="3"/><text class="body" x="510.0" y="1369.5" text-anchor="middle">TCP/IP zum C4G-Controller</text><rect x="960" y="1297" width="840" height="125" rx="12" fill="white" stroke="#1c1c1c" stroke-width="3"/><text class="body" x="1380.0" y="1369.5" text-anchor="middle">Peripherie- und Sensorschnittstellen</text><rect x="90" y="1448" width="840" height="125" rx="12" fill="white" stroke="#1c1c1c" stroke-width="3"/><text class="body" x="510.0" y="1491.5" text-anchor="middle">Bewegungsbefehle, Zustände,</text><text class="body" x="510.0" y="1549.5" text-anchor="middle">Achswinkel</text><path d="M945 1625 L945 1655" stroke="#121212" stroke-width="8" fill="none" stroke-linecap="round"/><path d="M945 1683 L921 1645 L969 1645 Z" fill="#121212"/><rect x="55" y="1708" width="1780" height="411" rx="16" fill="white" stroke="#1c1c1c" stroke-width="3"/><text class="bodyb" x="107" y="1760.5" text-anchor="start">ROS-2-Automatisierungs- und Planungsebene</text><rect x="90" y="1803" width="840" height="125" rx="12" fill="white" stroke="#1c1c1c" stroke-width="3"/><text class="body" x="510.0" y="1875.5" text-anchor="middle">Motion Control Node</text><rect x="960" y="1803" width="840" height="125" rx="12" fill="white" stroke="#1c1c1c" stroke-width="3"/><text class="body" x="1380.0" y="1875.5" text-anchor="middle">Joint Feedback und State Processing</text><rect x="90" y="1954" width="840" height="125" rx="12" fill="white" stroke="#1c1c1c" stroke-width="3"/><text class="body" x="510.0" y="2026.5" text-anchor="middle">MoveIt 2 / Bewegungsplanung</text><rect x="960" y="1954" width="840" height="125" rx="12" fill="white" stroke="#1c1c1c" stroke-width="3"/><text class="body" x="1380.0" y="2026.5" text-anchor="middle">PATH-Verarbeitung</text><path d="M945 2131 L945 2161" stroke="#121212" stroke-width="8" fill="none" stroke-linecap="round"/><path d="M945 2189 L921 2151 L969 2151 Z" fill="#121212"/><rect x="55" y="2214" width="1780" height="411" rx="16" fill="white" stroke="#1c1c1c" stroke-width="3"/><text class="bodyb" x="107" y="2266.5" text-anchor="start">Simulation, Aufzeichnung und Analyse</text><rect x="90" y="2309" width="840" height="125" rx="12" fill="white" stroke="#1c1c1c" stroke-width="3"/><text class="body" x="510.0" y="2381.5" text-anchor="middle">Gazebo Digital Twin</text><rect x="960" y="2309" width="840" height="125" rx="12" fill="white" stroke="#1c1c1c" stroke-width="3"/><text class="body" x="1380.0" y="2381.5" text-anchor="middle">Kollisionskörper / Bounding Boxes</text><rect x="90" y="2460" width="840" height="125" rx="12" fill="white" stroke="#1c1c1c" stroke-width="3"/><text class="body" x="510.0" y="2532.5" text-anchor="middle">Kollisionsprüfung und Pfadvalidierung</text><rect x="960" y="2460" width="840" height="125" rx="12" fill="white" stroke="#1c1c1c" stroke-width="3"/><text class="body" x="1380.0" y="2532.5" text-anchor="middle">rosbag2 und Logging</text><rect x="55" y="2695" width="1780" height="590" rx="16" fill="white" stroke="#1c1c1c" stroke-width="3"/><text class="bodyb" x="112" y="2765.0" text-anchor="start">Kernflüsse:</text><rect x="110" y="2815" width="817" height="175" rx="12" fill="white" stroke="#1c1c1c" stroke-width="3"/><text class="bodyb" x="140" y="2879" text-anchor="start">Bewegungsbefehle:</text><text class="body" x="140" y="2943.0" text-anchor="start">ROS 2 → C4G</text><rect x="962" y="2815" width="817" height="175" rx="12" fill="white" stroke="#1c1c1c" stroke-width="3"/><text class="bodyb" x="992" y="2879" text-anchor="start">Achswinkel:</text><text class="body" x="992" y="2943.0" text-anchor="start">C4G → ROS 2 → Gazebo</text><rect x="110" y="3025" width="817" height="175" rx="12" fill="white" stroke="#1c1c1c" stroke-width="3"/><text class="bodyb" x="140" y="3089" text-anchor="start">Planung:</text><text class="body" x="140" y="3153.0" text-anchor="start">MoveIt 2 → Gazebo → PATH</text><rect x="962" y="3025" width="817" height="175" rx="12" fill="white" stroke="#1c1c1c" stroke-width="3"/><text class="bodyb" x="992" y="3089" text-anchor="start">Daten:</text><text class="body" x="992" y="3153.0" text-anchor="start">ROS 2 → rosbag2/Logging</text>
</svg>